<svg width="136" height="117" viewBox="0 0 136 117" fill="none" xmlns="http://www.w3.org/2000/svg">
<path d="M61.8027 5.33099C60.8304 7.53341 53.5087 12.417 46.8426 18.0814C44.0492 20.455 41.679 22.9945 39.1009 25.3332C36.5227 27.672 32.3685 31.8189 29.2785 35.3987C27.0039 38.0338 24.7374 40.6727 21.548 44.2341C19.0188 47.0583 16.3992 50.7345 14.0532 54.5464C12.2925 57.4072 10.7422 60.0745 8.77545 62.0412C7.79579 63.0209 6.80876 64.0079 6.07214 66.3245C3.27873 75.1095 6.55835 81.4063 7.29124 85.6085C8.59255 93.0699 12.3902 106.223 19.8059 109.308C29.3449 113.277 48.2789 110.178 51.4794 108.34C63.6526 101.35 70.3637 90.7173 80.9639 83.831C100.137 71.3751 108.576 57.4947 121.949 41.4351C123.922 39.0654 125.385 36.2826 127.231 33.9439C129.17 31.4854 130.055 28.1801 130.184 20.3391C130.255 16.0579 127.86 12.7116 126.383 9.88314C124.869 6.98269 111.674 3.9867 102.964 5.33099C99.7569 5.82593 95.4503 12.196 92.7507 14.0412C90.2527 15.7486 87.5982 17.3522 84.7697 18.829C81.7653 20.3977 79.9818 23.2449 77.2822 25.3332C74.3233 27.6219 72.1297 29.8742 69.7911 32.3308C67.5932 34.6395 64.5134 35.767 61.9353 37.7337C59.5081 39.5853 57.1475 41.6597 53.3467 45.5821C50.7213 48.2914 48.5588 50.985 46.3417 53.2021C44.375 55.1688 41.9295 57.1282 40.3237 59.8278C38.4393 62.9958 37.0091 66.4534 36.1472 69.525C35.6505 71.295 36.2651 73.0901 36.8765 74.4381C38.0277 76.9762 41.6496 79.4617 45.4577 81.0748C51.0069 83.4254 53.9359 79.4911 56.6355 77.6459C59.2293 75.8731 61.788 73.1122 64.6165 71.3849C69.1271 68.6304 73.0873 62.0633 75.1756 59.2348C77.2431 56.4343 79.7166 53.4747 85.4731 47.3388C89.0158 43.5628 94.0491 38.4136 98.9639 36.331" stroke="white" stroke-width="10" stroke-linecap="round" stroke-linejoin="round"/>
</svg>
